IKResults
version=1
nRows=8
nColumns=67
inDegrees=yes

Units are S.I. units (second, meters, Newtons, ...)
Angles are in degrees.

endheader
time	pelvis_tilt	pelvis_list	pelvis_rotation	pelvis_tx	pelvis_ty	pelvis_tz	hip_flexion_r	hip_adduction_r	hip_rotation_r	knee_angle_r	knee_rot_r	knee_adduc_r	ankle_angle_r	ankle_rot_r	ankle_add_r	subtalar_angle_r	mtp_angle_r	mtp_rot_r	mtp_add_r	hip_flexion_l	hip_adduction_l	hip_rotation_l	knee_angle_l	knee_rot_l	knee_adduc_l	ankle_angle_l	ankle_rot_l	ankle_add_l	subtalar_angle_l	mtp_angle_l	mtp_rot_l	mtp_add_l	lumbar_extension	lumbar_bending	lumbar_rotation	neck_flexion	neck_lateral_bending	neck_rotation	arm_flex_r	arm_add_r	arm_rot_r	elbow_flex_r	elbow_rot_r	elbow_add_r	pro_sup_r	wrist_flex_r	wrist_adduc_r	wrist_rot_r	wrist_dev_r	hand_finger_flex_r	hand_finger_adduc_r	hand_finger_rot_r	arm_flex_l	arm_add_l	arm_rot_l	elbow_flex_l	elbow_rot_l	elbow_add_l	pro_sup_l	wrist_flex_l	wrist_adduc_l	wrist_rot_l	wrist_dev_l	hand_finger_flex_l	hand_finger_adduc_l	hand_finger_rot_l
      6.55500000	     -3.37181718	     -1.76019572	     -1.02234215	      0.13938681	      0.59841863	      0.94314076	      8.64544717	     -4.36173042	     -7.08408938	    -48.71710716	     -5.00000000	     -5.00000000	     25.62919850	     -5.00000000	      5.00000000	    -31.00303977	     -8.99187770	     -2.00000000	      2.00000000	     41.16603403	     -3.41292186	      1.78891544	    -49.06415618	      5.00000000	      2.66312981	     13.85615981	     -3.00129440	      5.00000000	    -23.92899511	     10.00936370	     -2.00000000	     -1.37200171	     -8.30532635	     -1.41909236	     16.84506470	      0.00000000	      0.00000000	      0.00000000	      0.00000000	      0.00000000	      0.00000000	      0.00000000	      0.00000000	      0.00000000	     -0.00042092	      0.00000000	      0.00000000	      0.00000000	      0.00000000	      0.00000000	      0.00000000	      0.00000000	      0.00000000	      0.00000000	      0.00000000	      0.00000000	      0.00000000	      0.00000000	      0.00000000	      0.00000000	      0.00000000	      0.00000000	      0.00000000	      0.00000000	      0.00000000	      0.00000000
      6.56000000	     -3.20048492	     -1.62929492	     -0.76386732	      0.14305790	      0.59711158	      0.94164890	      8.52447956	     -4.54853876	     -6.83413050	    -49.63201739	     -5.00000000	     -5.00000000	     25.47919642	     -5.00000000	      5.00000000	    -31.07392471	     -9.04679723	     -2.00000000	      2.00000000	     41.29152054	     -2.86655992	      1.70700045	    -50.13744613	      5.00000000	      2.96447386	     13.94314644	     -2.97190708	      5.00000000	    -24.05421671	     10.06639728	     -2.00000000	     -1.38340652	     -8.45229765	     -1.63287080	     16.78118408	      0.00000000	      0.00000000	      0.00000000	      0.00000000	      0.00000000	      0.00000000	      0.00000000	      0.00000000	      0.00000000	     -0.00042092	      0.00000000	      0.00000000	      0.00000000	      0.00000000	      0.00000000	      0.00000000	      0.00000000	      0.00000000	      0.00000000	      0.00000000	      0.00000000	      0.00000000	      0.00000000	      0.00000000	      0.00000000	      0.00000000	      0.00000000	      0.00000000	      0.00000000	      0.00000000	      0.00000000
      6.56500000	     -3.15743985	     -0.71194230	     -0.32168777	      0.14766233	      0.59601642	      0.93960240	      8.39233892	     -5.74637708	     -6.82798500	    -50.49751821	     -5.00000000	     -5.00000000	     24.56879518	     -5.00000000	      5.00000000	    -31.38500138	     -9.31006775	     -2.00000000	      2.00000000	     41.19649617	     -1.39360234	      1.20942646	    -50.74632343	      5.00000000	      3.38113650	     14.50261439	     -2.77138524	      5.00000000	    -24.70128885	     10.36104926	     -2.00000000	     -1.46019706	     -8.26199444	     -2.68011685	     16.37038719	      0.00000000	      0.00000000	      0.00000000	      0.00000000	      0.00000000	      0.00000000	      0.00000000	      0.00000000	      0.00000000	     -0.00042092	      0.00000000	      0.00000000	      0.00000000	      0.00000000	      0.00000000	      0.00000000	      0.00000000	      0.00000000	      0.00000000	      0.00000000	      0.00000000	      0.00000000	      0.00000000	      0.00000000	      0.00000000	      0.00000000	      0.00000000	      0.00000000	      0.00000000	      0.00000000	      0.00000000
      6.57000000	     -3.02362951	     -0.57372978	     -0.04123110	      0.15123935	      0.59478537	      0.93809660	      8.35263876	     -5.91454241	     -6.53820096	    -51.47122928	     -5.00000000	     -5.00000000	     24.39495151	     -5.00000000	      5.00000000	    -31.43933841	     -9.35229906	     -2.00000000	      2.00000000	     41.24424592	     -0.83514265	      1.20723278	    -51.63551178	      5.00000000	      3.60914937	     14.59007626	     -2.78069700	      5.00000000	    -24.79503636	     10.42994393	     -2.00000000	     -1.47987764	     -8.41851931	     -2.87933723	     16.33081114	      0.00000000	      0.00000000	      0.00000000	      0.00000000	      0.00000000	      0.00000000	      0.00000000	      0.00000000	      0.00000000	     -0.00042092	      0.00000000	      0.00000000	      0.00000000	      0.00000000	      0.00000000	      0.00000000	      0.00000000	      0.00000000	      0.00000000	      0.00000000	      0.00000000	      0.00000000	      0.00000000	      0.00000000	      0.00000000	      0.00000000	      0.00000000	      0.00000000	      0.00000000	      0.00000000	      0.00000000
      6.57500000	     -3.03498970	      0.25373898	      0.35293541	      0.15554036	      0.59371742	      0.93656706	      8.36945034	     -6.90803843	     -6.39909146	    -52.44359884	     -5.00000000	     -5.00000000	     23.45084907	     -5.00000000	      5.00000000	    -31.56425637	     -9.52188674	     -2.00000000	      2.00000000	     41.13172353	      0.39855601	      1.11181256	    -52.13827322	      5.00000000	      3.60025391	     15.12977009	     -2.72651375	      5.00000000	    -25.29378745	     10.70208961	     -2.00000000	     -1.57265561	     -8.27588466	     -3.93564814	     16.04527071	      0.00000000	      0.00000000	      0.00000000	      0.00000000	      0.00000000	      0.00000000	      0.00000000	      0.00000000	      0.00000000	     -0.00042092	      0.00000000	      0.00000000	      0.00000000	      0.00000000	      0.00000000	      0.00000000	      0.00000000	      0.00000000	      0.00000000	      0.00000000	      0.00000000	      0.00000000	      0.00000000	      0.00000000	      0.00000000	      0.00000000	      0.00000000	      0.00000000	      0.00000000	      0.00000000	      0.00000000
      6.58000000	     -2.97078442	      0.30715891	      0.59796232	      0.15948488	      0.59270979	      0.93522266	      8.28668764	     -6.90082513	     -6.02338400	    -53.18564462	     -5.00000000	     -5.00000000	     23.34540895	     -5.00000000	      5.00000000	    -31.57641779	     -9.53473484	     -2.00000000	      2.00000000	     41.06120601	      0.89900075	      1.24967712	    -52.82688824	      5.00000000	      3.83883852	     15.19532771	     -2.72454824	      5.00000000	    -25.35388673	     10.73407005	     -2.00000000	     -1.58444757	     -8.25512624	     -4.06489789	     16.07096052	      0.00000000	      0.00000000	      0.00000000	      0.00000000	      0.00000000	      0.00000000	      0.00000000	      0.00000000	      0.00000000	     -0.00042092	      0.00000000	      0.00000000	      0.00000000	      0.00000000	      0.00000000	      0.00000000	      0.00000000	      0.00000000	      0.00000000	      0.00000000	      0.00000000	      0.00000000	      0.00000000	      0.00000000	      0.00000000	      0.00000000	      0.00000000	      0.00000000	      0.00000000	      0.00000000	      0.00000000
      6.58500000	     -3.02666448	      1.16366851	      0.93347061	      0.16329881	      0.59158379	      0.93343775	      8.52032566	     -7.97506460	     -5.80759655	    -54.36277958	     -5.00000000	     -5.00000000	     22.15162732	     -5.00000000	      5.00000000	    -31.57389405	     -9.64781711	     -2.00000000	      2.00000000	     40.92863964	      2.13423543	      1.46106388	    -53.19836332	      5.00000000	      3.48871346	     15.84058258	     -2.59654861	      5.00000000	    -25.96259801	     10.96061256	     -2.00000000	     -1.67260278	     -8.21049145	     -5.06702606	     15.74559151	      0.00000000	      0.00000000	      0.00000000	      0.00000000	      0.00000000	      0.00000000	      0.00000000	      0.00000000	      0.00000000	     -0.00042092	      0.00000000	      0.00000000	      0.00000000	      0.00000000	      0.00000000	      0.00000000	      0.00000000	      0.00000000	      0.00000000	      0.00000000	      0.00000000	      0.00000000	      0.00000000	      0.00000000	      0.00000000	      0.00000000	      0.00000000	      0.00000000	      0.00000000	      0.00000000	      0.00000000
      6.59000000	     -2.97121872	      1.27850843	      1.16014046	      0.16675236	      0.59054851	      0.93192798	      8.62291514	     -8.10146627	     -5.49024768	    -55.32415643	     -5.00000000	     -5.00000000	     21.87125456	     -5.00000000	      5.00000000	    -31.59713951	     -9.65461063	     -2.00000000	      2.00000000	     40.80742032	      2.66261371	      1.62080559	    -53.72812742	      5.00000000	      3.60275273	     15.96196767	     -2.55000142	      5.00000000	    -26.11737592	     11.00634959	     -2.00000000	     -1.68886994	     -8.32629366	     -5.20579293	     15.66694952	      0.00000000	      0.00000000	      0.00000000	      0.00000000	      0.00000000	      0.00000000	      0.00000000	      0.00000000	      0.00000000	     -0.00042092	      0.00000000	      0.00000000	      0.00000000	      0.00000000	      0.00000000	      0.00000000	      0.00000000	      0.00000000	      0.00000000	      0.00000000	      0.00000000	      0.00000000	      0.00000000	      0.00000000	      0.00000000	      0.00000000	      0.00000000	      0.00000000	      0.00000000	      0.00000000	      0.00000000
